<svg width="101" height="101" viewBox="0 0 101 101" fill="none" xmlns="http://www.w3.org/2000/svg">
<rect x="0.733643" y="0.801392" width="100" height="100" rx="20" fill="white"/>
<path d="M5.74217 60.8014V40.4378H13.3785C14.9429 40.4378 16.2554 40.7095 17.316 41.2531C18.3833 41.7967 19.1887 42.559 19.7322 43.54C20.2824 44.5145 20.5575 45.6513 20.5575 46.9505C20.5575 48.2564 20.2791 49.3899 19.7223 50.3511C19.1721 51.3057 18.3601 52.0448 17.2862 52.5684C16.2123 53.0855 14.8932 53.344 13.3288 53.344H7.88989V50.2815H12.8317C13.7464 50.2815 14.4955 50.1556 15.0788 49.9037C15.6621 49.6451 16.093 49.2706 16.3714 48.7801C16.6565 48.2829 16.799 47.6731 16.799 46.9505C16.799 46.228 16.6565 45.6115 16.3714 45.1011C16.0864 44.5841 15.6522 44.193 15.0689 43.9278C14.4855 43.656 13.7332 43.5201 12.8118 43.5201H9.43109V60.8014H5.74217ZM16.2621 51.5741L21.3032 60.8014H17.1868L12.2351 51.5741H16.2621ZM23.9531 60.8014V40.4378H37.1974V43.5301H27.642V49.0585H36.5113V52.1508H27.642V57.7091H37.277V60.8014H23.9531ZM43.576 60.8014H39.6385L46.8075 40.4378H51.3615L58.5405 60.8014H54.603L49.164 44.6139H49.0049L43.576 60.8014ZM43.7052 52.817H54.4439V55.7801H43.7052V52.817ZM77.696 47.3085H73.9773C73.8712 46.6986 73.6756 46.1584 73.3906 45.6878C73.1056 45.2105 72.7509 44.8061 72.3267 44.4747C71.9024 44.1432 71.4185 43.8947 70.875 43.7289C70.338 43.5566 69.758 43.4704 69.1349 43.4704C68.0279 43.4704 67.0469 43.7488 66.1917 44.3057C65.3366 44.8558 64.6671 45.6646 64.1832 46.7318C63.6993 47.7924 63.4574 49.0883 63.4574 50.6196C63.4574 52.1773 63.6993 53.4898 64.1832 54.5571C64.6737 55.6177 65.3433 56.4198 66.1917 56.9633C67.0469 57.5003 68.0246 57.7687 69.125 57.7687C69.7348 57.7687 70.3049 57.6892 70.8352 57.5301C71.3721 57.3644 71.8527 57.1224 72.277 56.8042C72.7078 56.4861 73.0691 56.095 73.3608 55.6309C73.6591 55.1669 73.8646 54.6366 73.9773 54.04L77.696 54.0599C77.5568 55.0277 77.2552 55.9359 76.7912 56.7843C76.3338 57.6328 75.7339 58.3819 74.9915 59.0315C74.249 59.6745 73.3807 60.1783 72.3863 60.5429C71.392 60.9008 70.2883 61.0798 69.0753 61.0798C67.2855 61.0798 65.688 60.6655 64.2826 59.8369C62.8773 59.0083 61.7703 57.8118 60.9616 56.2474C60.1529 54.683 59.7486 52.8071 59.7486 50.6196C59.7486 48.4254 60.1562 46.5495 60.9716 44.9917C61.7869 43.4273 62.8972 42.2308 64.3025 41.4022C65.7078 40.5736 67.2987 40.1593 69.0753 40.1593C70.2088 40.1593 71.2628 40.3184 72.2372 40.6366C73.2116 40.9548 74.08 41.4221 74.8423 42.0386C75.6046 42.6485 76.231 43.3975 76.7216 44.2858C77.2187 45.1674 77.5435 46.175 77.696 47.3085ZM80.1793 43.5301V40.4378H96.4265V43.5301H90.1324V60.8014H86.4733V43.5301H80.1793Z" fill="#0047FF"/>
</svg>
