<svg width="200" height="200" viewBox="0 0 200 200" fill="none" xmlns="http://www.w3.org/2000/svg">
<rect width="200" height="200" rx="25" fill="#2B2B2B"/>
<path fill-rule="evenodd" clip-rule="evenodd" d="M60.625 141.329C37.6611 132.717 21.25 109.908 21.25 83.125C21.25 48.9524 47.9659 21.25 80.9216 21.25C108.263 21.25 131.309 40.3174 138.368 66.328C139.165 66.2763 139.968 66.25 140.777 66.25C161.749 66.25 178.75 83.8788 178.75 105.625C178.75 127.371 161.749 145 140.777 145C140.308 145 139.84 144.991 139.375 144.973V133.75H141.079C155.327 133.581 167.5 121.434 167.5 105.625C167.5 89.704 155.155 77.5 140.777 77.5C136.715 77.5 132.816 78.4741 129.311 80.2308C129.132 76.9581 128.652 73.7691 127.899 70.6933L127.882 70.7002C122.551 48.5315 103.284 32.5 80.9216 32.5C54.5601 32.5 32.5 54.7776 32.5 83.125C32.5 103.721 44.1455 121.113 60.625 129.084V141.329Z" fill="url(#paint0_linear_120_3145)"/>
<path fill-rule="evenodd" clip-rule="evenodd" d="M106.57 102.505L115.93 108.745L99.2604 133.75H127.876L97.0601 176.418L87.9399 169.832L105.874 145H78.2396L106.57 102.505Z" fill="url(#paint1_linear_120_3145)"/>
<path fill-rule="evenodd" clip-rule="evenodd" d="M124.53 161.45C123.362 164.186 122.505 167.111 122.506 169.801C122.507 174.744 126.286 178.75 130.946 178.75C135.606 178.75 139.382 174.744 139.381 169.801C139.38 167.285 138.434 164.306 137.176 161.454C134.674 155.786 130.938 150.625 130.938 150.625C130.938 150.625 127.025 155.607 124.53 161.45Z" fill="url(#paint2_linear_120_3145)"/>
<path fill-rule="evenodd" clip-rule="evenodd" d="M62.6552 161.45C61.4872 164.186 60.6301 167.111 60.6309 169.801C60.6324 174.744 64.4112 178.75 69.0711 178.75C73.731 178.75 77.5074 174.744 77.5059 169.801C77.5051 167.285 76.5591 164.306 75.3007 161.454C72.799 155.786 69.0625 150.625 69.0625 150.625C69.0625 150.625 65.1498 155.607 62.6552 161.45Z" fill="url(#paint3_linear_120_3145)"/>
<defs>
<linearGradient id="paint0_linear_120_3145" x1="100" y1="21.25" x2="100" y2="178.75" gradientUnits="userSpaceOnUse">
<stop stop-color="#95B6F6"/>
<stop offset="1" stop-color="#5193DE"/>
</linearGradient>
<linearGradient id="paint1_linear_120_3145" x1="100" y1="21.25" x2="100" y2="178.75" gradientUnits="userSpaceOnUse">
<stop stop-color="#F5BD52"/>
<stop offset="1" stop-color="#F5DA79"/>
</linearGradient>
<linearGradient id="paint2_linear_120_3145" x1="100" y1="21.25" x2="100" y2="178.75" gradientUnits="userSpaceOnUse">
<stop stop-color="#95B6F6"/>
<stop offset="1" stop-color="#5193DE"/>
</linearGradient>
<linearGradient id="paint3_linear_120_3145" x1="100" y1="21.25" x2="100" y2="178.75" gradientUnits="userSpaceOnUse">
<stop stop-color="#95B6F6"/>
<stop offset="1" stop-color="#5193DE"/>
</linearGradient>
</defs>
</svg>
